<mxfile host="app.diagrams.net" agent="Mozilla/5.0 (Windows NT 10.0; Win64; x64) AppleWebKit/537.36 (KHTML, like Gecko) Chrome/136.0.0.0 Safari/537.36 Edg/136.0.0.0" version="27.2.0">
  <diagram name="Página-1" id="nXQz9VLSLlL5GwqTy-l1">
    <mxGraphModel dx="940" dy="1651" grid="1" gridSize="10" guides="1" tooltips="1" connect="1" arrows="1" fold="1" page="1" pageScale="1" pageWidth="827" pageHeight="1169" math="0" shadow="0" adaptiveColors="none">
      <root>
        <mxCell id="0" />
        <mxCell id="1" parent="0" />
        <mxCell id="yfyngpZ6kTW5o_8SKnOL-1" value="Paciente" style="ellipse;shape=umlEntity;whiteSpace=wrap;html=1;" parent="1" vertex="1">
          <mxGeometry x="100" y="80" width="100" height="60" as="geometry" />
        </mxCell>
        <mxCell id="yfyngpZ6kTW5o_8SKnOL-2" value="Nutricionista" style="ellipse;shape=umlEntity;whiteSpace=wrap;html=1;" parent="1" vertex="1">
          <mxGeometry x="320" y="80" width="100" height="60" as="geometry" />
        </mxCell>
        <mxCell id="yfyngpZ6kTW5o_8SKnOL-3" value="Médico" style="ellipse;shape=umlEntity;whiteSpace=wrap;html=1;" parent="1" vertex="1">
          <mxGeometry x="540" y="80" width="100" height="60" as="geometry" />
        </mxCell>
        <mxCell id="yfyngpZ6kTW5o_8SKnOL-4" value="Consulta" style="ellipse;shape=umlEntity;whiteSpace=wrap;html=1;" parent="1" vertex="1">
          <mxGeometry x="350" y="-110" width="100" height="60" as="geometry" />
        </mxCell>
        <mxCell id="yfyngpZ6kTW5o_8SKnOL-5" value="PlanoAlimentar" style="ellipse;shape=umlEntity;whiteSpace=wrap;html=1;" parent="1" vertex="1">
          <mxGeometry x="330" y="190" width="100" height="60" as="geometry" />
        </mxCell>
        <mxCell id="yfyngpZ6kTW5o_8SKnOL-6" value="Receita" style="ellipse;shape=umlEntity;whiteSpace=wrap;html=1;" parent="1" vertex="1">
          <mxGeometry x="560" y="210" width="100" height="60" as="geometry" />
        </mxCell>
        <mxCell id="yfyngpZ6kTW5o_8SKnOL-7" value="Métrica" style="ellipse;shape=umlEntity;whiteSpace=wrap;html=1;" parent="1" vertex="1">
          <mxGeometry x="320" y="320" width="100" height="60" as="geometry" />
        </mxCell>
        <mxCell id="yfyngpZ6kTW5o_8SKnOL-8" value="Relatório" style="ellipse;shape=umlEntity;whiteSpace=wrap;html=1;" parent="1" vertex="1">
          <mxGeometry x="540" y="320" width="100" height="60" as="geometry" />
        </mxCell>
        <mxCell id="yfyngpZ6kTW5o_8SKnOL-9" value="Notificação" style="ellipse;shape=umlEntity;whiteSpace=wrap;html=1;" parent="1" vertex="1">
          <mxGeometry x="320" y="440" width="100" height="60" as="geometry" />
        </mxCell>
        <mxCell id="rel1" style="endArrow=block;endFill=0;" parent="1" source="yfyngpZ6kTW5o_8SKnOL-1" target="yfyngpZ6kTW5o_8SKnOL-4" edge="1">
          <mxGeometry relative="1" as="geometry" />
        </mxCell>
        <mxCell id="rel2" style="endArrow=block;endFill=0;" parent="1" source="yfyngpZ6kTW5o_8SKnOL-2" target="yfyngpZ6kTW5o_8SKnOL-4" edge="1">
          <mxGeometry relative="1" as="geometry" />
        </mxCell>
        <mxCell id="rel3" style="endArrow=block;endFill=0;" parent="1" source="yfyngpZ6kTW5o_8SKnOL-3" target="yfyngpZ6kTW5o_8SKnOL-4" edge="1">
          <mxGeometry relative="1" as="geometry" />
        </mxCell>
        <mxCell id="rel4" style="endArrow=block;endFill=0;" parent="1" source="yfyngpZ6kTW5o_8SKnOL-1" target="yfyngpZ6kTW5o_8SKnOL-5" edge="1">
          <mxGeometry relative="1" as="geometry" />
        </mxCell>
        <mxCell id="rel5" style="endArrow=block;endFill=0;" parent="1" source="yfyngpZ6kTW5o_8SKnOL-2" target="yfyngpZ6kTW5o_8SKnOL-5" edge="1">
          <mxGeometry relative="1" as="geometry" />
        </mxCell>
        <mxCell id="rel6" style="endArrow=block;endFill=0;" parent="1" source="yfyngpZ6kTW5o_8SKnOL-5" target="yfyngpZ6kTW5o_8SKnOL-6" edge="1">
          <mxGeometry relative="1" as="geometry" />
        </mxCell>
        <mxCell id="rel7" style="endArrow=block;endFill=0;" parent="1" source="yfyngpZ6kTW5o_8SKnOL-1" target="yfyngpZ6kTW5o_8SKnOL-7" edge="1">
          <mxGeometry relative="1" as="geometry" />
        </mxCell>
        <mxCell id="rel8" style="endArrow=block;endFill=0;" parent="1" source="yfyngpZ6kTW5o_8SKnOL-7" target="yfyngpZ6kTW5o_8SKnOL-8" edge="1">
          <mxGeometry relative="1" as="geometry" />
        </mxCell>
        <mxCell id="rel9" style="endArrow=block;endFill=0;" parent="1" source="yfyngpZ6kTW5o_8SKnOL-8" target="yfyngpZ6kTW5o_8SKnOL-9" edge="1">
          <mxGeometry relative="1" as="geometry" />
        </mxCell>
        <mxCell id="gZ_IPukIXz_eJjO1my4D-1" value="Diagrama conceitual" style="shape=umlFrame;whiteSpace=wrap;html=1;pointerEvents=0;width=150;height=30;" parent="1" vertex="1">
          <mxGeometry x="60" y="-120" width="640" height="660" as="geometry" />
        </mxCell>
      </root>
    </mxGraphModel>
  </diagram>
</mxfile>
